<svg width="264" height="266" viewBox="0 0 264 266" fill="none" xmlns="http://www.w3.org/2000/svg">
<path d="M59.5818 243.822C59.817 242.814 44.718 169.543 44.9112 166.864C42.66 167.64 6.21944 166.67 5.32624 164.497C2.72644 171.832 4.58984 205.635 5.59784 214.016C6.60771 222.245 8.01797 230.421 9.82864 238.544C10.411 241.106 10.9486 244.444 13.4378 245.336C20.2684 247.819 20.7332 244.909 20.8494 243.978C22.7128 228.221 22.7912 212.31 25.5842 196.708C27.7584 184.406 31.5608 175.946 32.8418 173.967C31.6392 177.11 30.9014 180.331 29.9704 183.592C29.684 184.663 29.7107 185.794 30.0474 186.851C30.3974 188.209 50.5 242.431 51.5094 243.783C51.9883 244.485 52.6086 245.079 53.3304 245.527C54.0522 245.975 54.8597 246.267 55.701 246.384C56.5423 246.459 57.3841 246.247 58.089 245.781C58.7938 245.316 59.3201 244.625 59.5818 243.822Z" fill="#2F3941"/>
<path d="M93.2676 100.966C93.6918 97.4508 93.912 93.9136 93.927 90.3726C92.646 92.1198 89.16 94.4858 83.84 96.3492C79.3047 98.0341 74.51 98.9139 69.672 98.949C69.672 99.1436 70.8368 105.042 67.6924 114.084C77.2675 112.164 86.1213 107.622 93.2676 100.966Z" fill="#2F3941"/>
<path d="M57.2917 111.64V111.562C57.2147 111.174 57.2525 110.708 57.6025 110.552C57.9133 110.436 63.5791 116.025 63.7345 115.986C65.2479 115.482 67.3437 108.458 67.2653 104.654C67.2261 103.522 67.1096 102.394 66.9167 101.277C64.9974 102.847 63.2771 104.646 61.7941 106.634C61.7152 106.761 61.6011 106.862 61.4656 106.926C61.3301 106.99 61.179 107.013 61.0307 106.992C60.8824 106.971 60.7433 106.908 60.6303 106.81C60.5173 106.712 60.4352 106.583 60.3941 106.439C58.9185 100.502 56.7849 94.7574 55.4647 88.7808C53.6027 89.0916 47.9355 89.4402 34.9743 98.0208C28.5343 102.289 22.2063 109.819 17.8593 116.183C2.53208 138.689 0.863281 163.838 0.863281 163.838C8.04388 169.543 17.3581 171.521 26.5547 171.638C35.7135 171.755 44.6791 170.007 51.9745 164.498C51.9745 164.498 51.1989 145.87 52.2853 138.38C44.6105 133.694 37.5545 123.389 38.5471 122.314C39.0133 121.808 42.4279 126.194 43.9805 127.94C50.3113 135.842 59.5023 140.93 69.5599 142.1C88.5761 144.156 102.625 128.401 102.625 128.401C101.45 125.713 100.452 122.951 99.6361 120.134C92.7949 124.272 84.6511 125.695 76.8119 124.123C68.9727 122.55 62.0078 118.096 57.2917 111.64Z" fill="#2F3941"/>
<path d="M65.9467 99.9598C63.9332 98.5805 62.2492 96.7736 61.015 94.6681C59.7807 92.5626 59.0267 90.2105 58.8067 87.7798C58.1067 88.0892 56.6339 88.4798 56.3623 88.5946C58.1473 93.8334 59.8161 99.2668 61.3687 104.584C62.724 102.883 64.2589 101.332 65.9467 99.9598Z" fill="#2F3941"/>
<path d="M131.611 59.5584C116.467 53.3984 105.082 74.6546 112.788 88.005C114.272 90.7846 116.521 93.0815 119.269 94.6243C122.017 96.1671 125.148 96.8915 128.295 96.7119C131.441 96.5323 134.47 95.4563 137.024 93.6108C139.578 91.7653 141.551 89.2275 142.71 86.297C144.701 81.2719 144.656 75.6687 142.583 70.6766C140.511 65.6844 136.575 61.6962 131.611 59.5584ZM117.794 87.8888C117.17 87.1245 116.743 86.2181 116.552 85.2498C116.51 85.0683 116.532 84.8776 116.616 84.7111C116.7 84.5446 116.84 84.4128 117.011 84.3388C117.182 84.2647 117.373 84.2532 117.552 84.3061C117.731 84.359 117.885 84.473 117.989 84.6282C118.543 85.4517 118.889 86.397 118.998 87.3834C118.997 87.5225 118.956 87.6583 118.878 87.774C118.801 87.8896 118.691 87.9799 118.563 88.0338C118.435 88.0876 118.293 88.1026 118.157 88.0768C118.02 88.051 117.894 87.9857 117.794 87.8888ZM124.044 64.0202C118.614 69.2548 117.72 73.4492 117.135 79.9396C117.058 80.6774 115.971 80.9098 115.777 80.1328C114.147 73.8468 117.912 66.3568 123.19 62.9408C123.849 62.5068 124.58 63.5162 124.044 64.0202Z" fill="#2F3941"/>
<path d="M151.21 211.26C140.02 216.055 129.167 222.049 116.708 222.593C106.658 223.013 96.8379 219.759 89.9303 212.347C90.2537 210.485 92.2081 146.934 92.3369 138.727C92.3291 138.557 92.2562 138.397 92.1332 138.28C92.0103 138.162 91.8468 138.097 91.6768 138.097C91.5069 138.097 91.3434 138.162 91.2205 138.28C91.0975 138.397 91.0246 138.557 91.0167 138.727C90.3573 151.029 88.6885 199.967 88.5723 202.916C88.2361 206.113 88.171 209.333 88.3777 212.541C88.4064 212.743 88.5024 212.93 88.6503 213.071C88.7981 213.212 88.9891 213.299 89.1925 213.318C95.2125 221.506 106.114 224.688 115.933 224.494C128.545 224.261 141.236 218.712 152.102 212.619C152.916 212.115 152.104 210.879 151.21 211.26Z" fill="#2F3941"/>
<path d="M96.683 215.337C97.1604 212.087 97.3292 208.8 97.187 205.518C97.3032 202.065 97.9626 181.767 98.1572 175.092C98.5842 161.512 99.2772 147.848 99.2436 134.265C99.236 134.106 99.1673 133.955 99.0517 133.845C98.9361 133.735 98.7825 133.673 98.6227 133.673C98.463 133.673 98.3093 133.735 98.1937 133.845C98.0781 133.955 98.0094 134.106 98.0018 134.265C96.97 149.307 97.194 154.854 95.4398 205.129C95.1109 208.522 95.072 211.937 95.3236 215.337C95.3628 216.074 96.5346 215.999 96.683 215.337Z" fill="#2F3941"/>
<path d="M182.139 33.0902C182.801 32.6702 182.373 31.4214 181.557 31.7322C176.517 33.6726 171.662 36.0008 166.5 37.6304C150.601 42.5451 133.73 43.4255 117.406 40.1924C116.747 40.0762 116.436 41.0856 117.134 41.2396C128.084 43.7839 139.398 44.3622 150.55 42.9476C160.292 41.6946 174.298 38.112 182.139 33.0902Z" fill="#2F3941"/>
<path d="M158.855 52.4999C154.039 53.717 149.066 54.1892 144.107 53.8999C143.331 53.8621 143.331 55.0647 144.107 55.1039C148.958 55.3755 154.856 55.8795 159.359 53.7039C160.096 53.4267 159.59 52.2941 158.855 52.4999Z" fill="#2F3941"/>
<path d="M115.699 197.795C121.265 197.673 126.81 197.064 132.27 195.975C137.771 195.014 143.104 193.263 148.104 190.775C148.235 190.691 148.333 190.563 148.38 190.414C148.427 190.265 148.419 190.105 148.359 189.961C148.299 189.817 148.189 189.699 148.05 189.627C147.911 189.556 147.752 189.536 147.6 189.571C139.74 191.811 131.677 195.661 115.66 196.557C114.919 196.67 114.919 197.82 115.699 197.795Z" fill="#2F3941"/>
<path d="M148.027 160.228C143.372 162.258 138.521 163.806 133.551 164.848C128.41 165.818 123.157 166.053 117.949 165.548C117.249 165.471 117.095 166.668 117.794 166.792C128.001 168.192 139.644 167.024 148.57 161.514C149.19 161.12 148.768 159.927 148.027 160.228Z" fill="#2F3941"/>
<path d="M152.762 133.217C147.004 134.866 141.178 137.298 129.826 137.408C129.678 137.419 129.54 137.485 129.439 137.593C129.338 137.701 129.282 137.843 129.282 137.991C129.282 138.139 129.338 138.281 129.439 138.389C129.54 138.497 129.678 138.563 129.826 138.573C137.853 138.994 145.871 137.574 153.266 134.421C153.964 134.11 153.459 133.018 152.762 133.217Z" fill="#2F3941"/>
<path d="M152.762 117.577C146.835 118.881 140.784 121.1 129.088 121.653C128.929 121.66 128.778 121.729 128.668 121.845C128.558 121.96 128.496 122.114 128.496 122.274C128.496 122.433 128.558 122.587 128.668 122.703C128.778 122.818 128.929 122.887 129.088 122.894C137.005 122.777 145.737 121.962 153.15 118.896C153.322 118.842 153.467 118.723 153.552 118.564C153.637 118.405 153.656 118.219 153.605 118.046C153.554 117.873 153.437 117.726 153.28 117.639C153.122 117.551 152.936 117.529 152.762 117.577Z" fill="#2F3941"/>
<path d="M76.036 86.5299C76.1682 86.5202 76.2919 86.4608 76.3822 86.3637C76.4725 86.2666 76.5226 86.1389 76.5226 86.0063C76.5226 85.8737 76.4725 85.746 76.3822 85.6488C76.2919 85.5517 76.1682 85.4923 76.036 85.4827C75.4902 85.388 74.9305 85.4117 74.3947 85.5523C73.859 85.6929 73.3597 85.947 72.9308 86.2975C72.7265 86.4488 72.5593 86.6445 72.4417 86.8698C72.3241 87.0951 72.2591 87.3442 72.2517 87.5983C72.2443 87.8523 72.2946 88.1048 72.3989 88.3366C72.5032 88.5684 72.6587 88.7735 72.8538 88.9365C73.064 89.0728 73.3084 89.1472 73.5589 89.1512C73.8095 89.1552 74.0561 89.0886 74.2706 88.9591C74.4851 88.8296 74.6589 88.6423 74.772 88.4187C74.8851 88.1951 74.9331 87.9442 74.9104 87.6947C74.8951 87.5238 74.842 87.3585 74.7548 87.2107C74.6676 87.063 74.5486 86.9366 74.4064 86.8407C74.9255 86.6367 75.4782 86.5313 76.036 86.5299Z" fill="#2F3941"/>
<path d="M87.098 71.8997C85.4012 70.2617 82.268 71.0597 81.2754 74.0333C81.1223 73.6 80.8653 73.2108 80.5271 72.8996C80.1889 72.5885 79.7796 72.3649 79.335 72.2483C75.8042 71.0849 73.7476 74.9265 74.0962 77.9141C74.3678 80.1275 75.5326 83.6541 78.3648 83.4259C80.2282 83.2705 81.043 81.2139 81.4308 79.4289C81.7938 79.3642 82.1671 79.3906 82.5172 79.5059C83.9172 80.0099 83.2172 82.6489 83.0618 83.3097C82.3419 86.3765 80.4466 89.038 77.7838 90.7213C76.0403 91.7759 73.952 92.1026 71.9698 91.6309C69.9875 91.1592 68.2702 89.9268 67.1886 88.1999C67.1427 88.1234 67.0821 88.0567 67.0104 88.0037C66.9386 87.9506 66.8572 87.9122 66.7706 87.8906C66.5957 87.847 66.4107 87.8747 66.2562 87.9675C66.1018 88.0603 65.9905 88.2107 65.9469 88.3856C65.9033 88.5604 65.931 88.7455 66.0238 88.8999C66.7695 90.4521 68.0149 91.7088 69.5602 92.4685C68.1476 94.3982 67.0704 96.5522 66.3738 98.8399C66.3433 98.972 66.3596 99.1106 66.4201 99.2319C66.4805 99.3533 66.5813 99.4498 66.7052 99.5049C66.829 99.56 66.9682 99.5704 67.0988 99.5341C67.2294 99.4978 67.3434 99.4172 67.421 99.3061C68.541 97.3265 70.6032 92.9795 70.641 92.9403C72.3786 93.4495 74.2174 93.5065 75.9832 93.106C77.7489 92.7054 79.3831 91.8605 80.7308 90.6513C83.015 88.4351 84.4329 85.4761 84.7292 82.3073C88.2222 80.9031 90.0002 74.7025 87.098 71.8997ZM78.558 81.9503C76.9662 82.4529 76.0744 80.1653 75.758 79.0789C75.338 77.4493 75.1378 75.3927 76.535 74.1509C76.9062 73.8263 77.3581 73.608 77.8431 73.519C78.328 73.4301 78.828 73.4738 79.2902 73.6455C80.5698 74.2279 80.5698 76.0913 80.532 77.4493C80.4606 77.5599 80.5376 81.3273 78.5594 81.9503H78.558ZM84.6508 80.7085C84.4576 79.3085 83.6806 78.0317 82.2834 78.1087C82.192 77.0056 82.2575 75.895 82.478 74.8103C83.0604 72.7537 85.8534 71.6659 86.6304 74.2279C87.3696 76.6723 87.0602 79.5059 84.6522 80.7085H84.6508Z" fill="#2F3941"/>
<path d="M83.721 76.79C83.721 77.0616 83.6426 77.42 83.6426 77.5264C83.6426 79.0916 85.4626 79.198 85.1182 76.8264C85.1261 76.7314 85.1146 76.6358 85.0843 76.5454C85.054 76.455 85.0056 76.3718 84.942 76.3008C84.8784 76.2298 84.801 76.1725 84.7144 76.1325C84.6279 76.0925 84.5341 76.0706 84.4389 76.0681C84.3436 76.0656 84.2488 76.0826 84.1603 76.1181C84.0718 76.1535 83.9915 76.2067 83.9243 76.2743C83.8571 76.3419 83.8044 76.4225 83.7694 76.5112C83.7344 76.5998 83.718 76.6947 83.721 76.79Z" fill="#2F3941"/>
<path d="M84.3028 73.8008C84.234 73.7611 84.1579 73.7355 84.0791 73.7255C84.0002 73.7155 83.9202 73.7212 83.8436 73.7424C83.767 73.7636 83.6954 73.7999 83.633 73.849C83.5705 73.8981 83.5185 73.9592 83.4798 74.0287C83.4412 74.0981 83.4168 74.1746 83.408 74.2535C83.3992 74.3325 83.4062 74.4125 83.4286 74.4887C83.451 74.565 83.4883 74.636 83.5384 74.6977C83.5885 74.7594 83.6504 74.8105 83.7204 74.848C84.1852 75.128 84.6514 75.6642 85.1946 75.6642C85.2982 75.6623 85.3995 75.6334 85.4885 75.5804C85.5775 75.5273 85.6511 75.4519 85.702 75.3617C85.7529 75.2715 85.7794 75.1695 85.7788 75.0659C85.7782 74.9623 85.7506 74.8607 85.6986 74.771C85.2656 74.4036 84.7981 74.0787 84.3028 73.8008Z" fill="#2F3941"/>
<path d="M78.4809 75.1589C78.5121 75.0372 78.5073 74.9091 78.4671 74.79C78.4269 74.671 78.3531 74.5662 78.2546 74.4883C78.1561 74.4103 78.0371 74.3626 77.912 74.351C77.7869 74.3393 77.6612 74.3641 77.5499 74.4225C77.0715 74.9277 76.6547 75.4879 76.3081 76.0913C76.2432 76.2108 76.2227 76.3495 76.2502 76.4827C76.2778 76.6159 76.3517 76.735 76.4588 76.8189C76.5658 76.9028 76.6992 76.9461 76.8351 76.941C76.971 76.936 77.1008 76.8829 77.2013 76.7913C77.4337 76.5169 78.4431 75.5089 78.4809 75.1589Z" fill="#2F3941"/>
<path d="M77.705 77.6045C77.5502 78.2288 77.5502 78.8814 77.705 79.5057C77.7673 79.6037 77.8534 79.6844 77.9552 79.7403C78.057 79.7962 78.1713 79.8255 78.2874 79.8255C78.4036 79.8255 78.5178 79.7962 78.6196 79.7403C78.7214 79.6844 78.8075 79.6037 78.8698 79.5057C79.0963 78.8985 79.1501 78.2404 79.0252 77.6045C79.0174 77.4347 78.9444 77.2744 78.8215 77.157C78.6986 77.0396 78.5351 76.9741 78.3651 76.9741C78.1951 76.9741 78.0317 77.0396 77.9087 77.157C77.7858 77.2744 77.7128 77.4347 77.705 77.6045Z" fill="#2F3941"/>
<path d="M57.7186 80.5921C59.016 81.4477 60.4874 82.0043 62.0264 82.2217C60.8435 84.3221 59.9801 86.5869 59.4644 88.9417C59.2712 89.6011 60.2022 89.7957 60.4346 89.2133C61.3278 87.0405 63.8114 82.3449 63.6952 82.1895C65.048 82.1008 66.3624 81.7022 67.5368 81.0247C66.6288 80.555 65.8342 79.8928 65.2086 79.0843C64.0578 76.7813 65.6496 74.2249 67.3814 74.1549C68.3651 74.0972 69.3457 74.3123 70.215 74.7765C70.6983 73.3023 71.61 72.0056 72.8335 71.0518C74.0571 70.098 75.5372 69.5304 77.0848 69.4215C78.6304 70.3864 80.413 70.9043 82.235 70.9179C84.057 70.9315 85.8471 70.4402 87.407 69.4985C90.5122 67.3985 91.404 62.0085 91.0946 59.5249C91.0191 58.5237 90.7456 57.5474 90.29 56.6527C89.8343 55.758 89.2056 54.9627 88.4402 54.3129C87.6749 53.663 86.7881 53.1716 85.8314 52.8671C84.8746 52.5625 83.8669 52.451 82.8668 52.5389C81.1135 52.6885 79.4377 53.3283 78.0308 54.3852C76.6239 55.442 75.5426 56.8733 74.9106 58.5155C74.9106 58.5155 71.3798 52.8497 64.5506 56.6955C60.5914 58.9467 62.7306 64.5747 62.7306 64.5747C61.8841 64.1898 60.9323 64.103 60.0302 64.3285C59.1281 64.554 58.329 65.0785 57.7634 65.8165C54.5812 70.0851 59.8634 73.1119 59.8634 73.1119C59.8634 73.1119 53.6474 77.0949 57.7186 80.5921Z" fill="#2F3941"/>
<path d="M28.6506 251.507C26.7886 249.72 24.9643 247.858 23.0239 246.15C22.8709 246.027 22.6778 245.965 22.4817 245.976C22.2856 245.986 22.1003 246.069 21.9614 246.208C21.8225 246.347 21.7398 246.532 21.7292 246.728C21.7186 246.924 21.7808 247.117 21.904 247.27C24.116 249.638 26.5604 251.773 28.8899 253.983C29.3939 254.45 33.0031 257.203 29.3547 256.894C25.2368 256.577 21.25 255.302 17.7124 253.17C15.2288 251.655 11.7358 249.327 11.5034 246.145C11.5034 245.959 11.4296 245.781 11.2983 245.65C11.1671 245.519 10.989 245.445 10.8034 245.445C10.6177 245.445 10.4397 245.519 10.3084 245.65C10.1771 245.781 10.1034 245.959 10.1034 246.145C9.98715 249.645 13.5572 252.2 16.157 253.946C19.4917 256.201 23.2804 257.698 27.2562 258.33C28.8479 258.564 34.0868 259.147 32.9234 255.886C31.6128 254.32 30.1844 252.856 28.6506 251.507Z" fill="#2F3941"/>
<path d="M74.5226 249.256C70.5803 247.311 66.5385 245.575 62.414 244.055C62.2458 244.012 62.0677 244.032 61.9126 244.11C61.7575 244.188 61.6358 244.319 61.5697 244.479C61.5037 244.64 61.4977 244.819 61.5531 244.983C61.6084 245.148 61.7212 245.287 61.8708 245.375C64.6708 246.889 67.7312 247.975 70.6418 249.217C71.2634 249.488 74.7172 250.419 74.0186 251.584C73.6686 252.127 70.331 252.049 69.7108 252.049C64.0224 252.029 58.4739 250.284 53.7984 247.044C53.6638 246.973 53.5086 246.952 53.36 246.985C53.2115 247.017 53.0792 247.101 52.9864 247.222C52.8937 247.342 52.8465 247.491 52.8532 247.643C52.8598 247.795 52.9199 247.94 53.0228 248.052C55.8867 250.373 59.2153 252.052 62.7838 252.976C66.3522 253.9 70.0775 254.047 73.7078 253.408C76.2306 252.865 76.8914 250.65 74.5226 249.256Z" fill="#2F3941"/>
<path d="M107.161 125.843C107.014 125.773 106.846 125.761 106.69 125.809C106.534 125.857 106.401 125.961 106.319 126.101C106.236 126.242 106.209 126.408 106.243 126.568C106.277 126.727 106.369 126.868 106.502 126.963C109.839 129.409 115.389 131.194 119.425 129.763C123.654 128.25 124.431 123.36 124.78 119.479C124.777 119.348 124.745 119.219 124.686 119.103C124.626 118.986 124.54 118.885 124.436 118.806C124.331 118.728 124.21 118.674 124.081 118.649C123.952 118.625 123.82 118.63 123.694 118.664C121.045 119.372 118.238 119.195 115.7 118.16C114.883 117.888 114.379 119.13 115.117 119.56C117.546 120.755 120.295 121.136 122.957 120.646C122.134 127.96 118.774 131.361 107.161 125.843Z" fill="#2F3941"/>
<path d="M102.543 121.574C105.134 120.362 107.856 119.451 110.654 118.858C112.129 118.587 112.089 118.625 113.022 117.458C113.797 116.488 114.728 115.673 115.542 114.78C115.643 114.676 115.702 114.538 115.709 114.393C115.717 114.248 115.671 114.105 115.581 113.992C115.49 113.878 115.362 113.801 115.219 113.774C115.076 113.748 114.929 113.775 114.804 113.849C113.622 114.837 112.508 115.903 111.469 117.04C110.783 117.398 110.03 117.609 109.257 117.66C106.688 118.264 104.218 119.231 101.923 120.533C101.807 120.625 101.729 120.756 101.702 120.901C101.676 121.047 101.703 121.197 101.779 121.324C101.854 121.451 101.973 121.546 102.114 121.593C102.254 121.639 102.407 121.632 102.543 121.574Z" fill="#2F3941"/>
<path d="M117.44 117.383C118.422 113.078 119.073 108.704 119.386 104.3C119.378 104.171 119.326 104.049 119.239 103.954C119.151 103.859 119.034 103.798 118.906 103.779C118.778 103.761 118.648 103.788 118.538 103.855C118.427 103.921 118.343 104.024 118.3 104.146C117.265 108.443 116.577 112.816 116.243 117.223C116.251 117.366 116.309 117.502 116.406 117.607C116.503 117.712 116.634 117.78 116.776 117.798C116.917 117.817 117.061 117.786 117.183 117.71C117.304 117.634 117.395 117.519 117.44 117.383Z" fill="#2F3941"/>
<path d="M121.36 118.548C122.651 113.709 123.763 108.806 124.698 103.839C124.853 102.908 123.494 102.519 123.261 103.451C122.096 108.34 121.161 113.309 120.311 118.237C120.201 118.935 121.178 119.248 121.36 118.548Z" fill="#2F3941"/>
<path d="M113.837 145.015C116.165 145.282 116.98 142.415 117.446 140.707C118.317 137.591 118.632 134.346 118.377 131.121C118.3 130.385 117.174 130.346 117.214 131.121C117.251 133.253 117.095 135.384 116.747 137.487C116.553 138.457 116.047 141.095 115.893 141.561C115.545 143.661 112.75 144.395 113.177 141.522C113.215 141.057 114.148 132.982 114.341 130.966C114.419 130.151 113.099 129.996 112.906 130.773C112.175 134.091 111.733 137.467 111.586 140.862C111.509 142.531 111.78 144.778 113.837 145.015Z" fill="#2F3941"/>
<path d="M111.663 87.9662C113.414 91.3877 116.234 94.1445 119.694 95.8183C123.154 97.4922 127.065 97.9918 130.835 97.2412C134.57 96.3294 137.932 94.2852 140.461 91.3885C142.99 88.4919 144.561 84.8844 144.961 81.06C145.931 71.9012 140.692 61.74 131.801 58.744C123.844 56.0672 118.023 58.9778 113.909 64.5274C109.024 71.162 107.753 80.549 111.663 87.9662ZM120.623 60.606C122.274 59.8585 124.058 59.4461 125.87 59.3928C127.682 59.3394 129.486 59.6462 131.179 60.2952C138.203 62.7788 142.821 69.8432 143.288 77.4102C143.575 80.9406 142.773 84.4743 140.99 87.5347C139.206 90.5951 136.527 93.0349 133.314 94.5252C130.027 95.9057 126.364 96.1112 122.943 95.1073C119.521 94.1034 116.55 91.9513 114.53 89.0134C107.618 79.3436 112.591 64.8942 120.627 60.606H120.623Z" fill="#2F3941"/>
<path d="M118.804 100.618C123.681 102.87 129.168 103.444 134.405 102.248C139.292 100.858 143.577 97.8811 146.585 93.7873C149.621 89.5396 151.249 84.448 151.243 79.2273C151.57 74.2541 150.606 69.2809 148.443 64.7905C143.204 54.7385 130.476 49.4227 119.998 54.1505C98.5794 63.9925 101.028 92.4531 118.804 100.618ZM120.744 55.5995C134.613 51.3505 148.68 59.2549 149.385 75.7805C149.773 80.387 148.999 85.0173 147.134 89.2471C145.069 93.4064 141.722 96.7926 137.588 98.9071C132.981 101.089 127.732 101.504 122.84 100.072C107.565 95.9251 101.34 76.4021 110.344 63.5165C113.049 60.0043 116.638 57.2724 120.744 55.5995Z" fill="#2F3941"/>
<path d="M255.527 84.6284C254.775 84.9851 253.997 85.2837 253.199 85.5216C253.16 78.1478 253.16 70.7348 253.121 63.361C255.402 62.8997 257.551 61.9318 259.408 60.5288C262.24 58.3546 264.064 54.436 262.551 50.9808C261.193 47.8378 256.923 46.092 254.246 48.6918C254.142 48.8065 254.076 48.9516 254.06 49.1059C254.044 49.2602 254.077 49.4158 254.155 49.5499C254.233 49.684 254.352 49.7897 254.494 49.8517C254.636 49.9136 254.795 49.9286 254.946 49.8944C257.624 49.2742 261.97 53.7374 255.566 57.3074C254.785 57.699 253.966 58.0109 253.122 58.2384C253.122 53.4658 253.083 39.6492 253.083 39.6492C255.396 39.192 257.573 38.2096 259.447 36.7778C262.281 34.6036 264.105 30.685 262.592 27.2298C261.234 24.0868 256.964 22.341 254.287 24.9408C253.821 25.407 254.287 26.415 254.987 26.1434C255.026 26.1434 255.065 26.1056 255.104 26.1056C255.236 26.1715 255.385 26.1982 255.531 26.1826C256.119 26.0545 256.728 26.0612 257.313 26.2023C257.898 26.3435 258.443 26.6153 258.908 26.9974C259.8 29.7148 258.287 32.1984 255.608 33.5956C254.8 33.9846 253.956 34.2963 253.088 34.5266C253.049 25.7164 253.128 7.43801 253.167 7.12721C253.178 6.84582 253.078 6.57132 252.89 6.36213C252.701 6.15295 252.438 6.02561 252.157 6.00721L252.118 5.96941C233.684 -3.15159 211.447 -0.0855859 192.043 3.83441C172.469 7.78941 153.9 13.6694 128.551 13.7744C114.045 13.7744 106.535 11.4952 97.6211 6.71141C97.1549 6.47901 95.6807 5.85741 95.6023 7.56541C94.8659 22.1576 92.3039 115.925 92.5363 120.111C92.5451 120.322 92.6348 120.521 92.7868 120.667C92.9388 120.812 93.1412 120.894 93.3518 120.894C93.5625 120.894 93.7649 120.812 93.9169 120.667C94.0689 120.521 94.1586 120.322 94.1673 120.111C94.9037 112.777 94.7105 105.248 94.9037 97.8738C95.0983 90.6946 97.1157 16.8026 97.1157 8.80721C110.542 18.4672 134.667 16.335 150.316 14.4352C182.04 10.483 218.937 -5.45739 249.856 6.86681C248.264 7.60461 245.005 9.07881 244.966 9.07881C228.462 3.09801 207.812 5.76361 190.749 9.66121C160.229 16.7102 134.485 27.6036 103.896 19.674C102.808 19.4024 102.692 19.7902 102.653 20.2564C101.606 36.1282 100.519 83.7478 100.287 91.6256C99.6399 113.155 99.4467 111.917 99.6259 115.687C99.6259 115.883 99.7037 116.071 99.842 116.209C99.9804 116.347 100.168 116.425 100.364 116.425C100.559 116.425 100.747 116.347 100.885 116.209C101.024 116.071 101.102 115.883 101.102 115.687C101.529 111.612 101.411 107.381 101.566 103.268C102.406 75.2862 103.934 36.5202 103.896 21.1104C137.374 32.2698 177.243 11.1956 213.103 8.23041C222.852 7.19023 232.71 7.9596 242.18 10.4998C214.278 23.9944 185.719 39.2306 159.944 55.7898C157.405 57.481 152.039 264.486 152.493 265.241C152.57 265.423 152.689 265.584 152.841 265.712C152.992 265.839 153.171 265.929 153.364 265.975C153.557 266.02 153.757 266.019 153.95 265.972C154.142 265.926 154.321 265.834 154.471 265.706C155.209 265.202 217.419 222.166 247.458 198.528C252.335 194.647 253.284 194.337 253.434 193.056C253.532 191.987 253.511 173.65 253.511 172.487C255.65 171.994 257.66 171.055 259.411 169.732C262.243 167.559 264.067 163.639 262.554 160.185C261.196 157.042 256.926 155.295 254.249 157.896C253.783 158.361 254.249 159.37 254.949 159.099C255.711 158.777 256.566 158.749 257.348 159.022C258.13 159.294 258.782 159.847 259.18 160.573C259.955 161.973 258.247 165.152 255.531 166.512C254.865 166.83 254.178 167.102 253.475 167.326C253.475 167.326 253.436 151.725 253.396 143.963C260.357 142.497 264.662 136.518 262.517 131.622C261.158 128.478 256.889 126.732 254.211 129.332C253.745 129.798 254.211 130.807 254.911 130.536C254.95 130.536 257.745 129.603 258.831 131.388C259.918 133.173 258.21 136.589 255.533 137.987C254.846 138.32 254.132 138.592 253.398 138.801C253.359 131.894 253.359 125.024 253.321 118.116C255.527 117.624 257.603 116.67 259.414 115.316C262.246 113.144 264.07 109.224 262.557 105.77C261.199 102.625 256.929 100.88 254.252 103.479C254.15 103.595 254.086 103.74 254.071 103.893C254.056 104.047 254.09 104.201 254.167 104.334C254.245 104.467 254.362 104.573 254.503 104.636C254.644 104.698 254.801 104.715 254.952 104.683C255.606 104.363 256.349 104.273 257.06 104.428C257.772 104.583 258.41 104.974 258.872 105.537C259.771 108.276 258.326 111.587 253.322 112.988C253.322 111.087 253.244 96.3394 253.244 90.8276C260.354 89.3828 264.724 83.3852 262.558 78.4488C261.2 75.3044 256.93 73.5586 254.253 76.1584C254.149 76.2731 254.083 76.4182 254.067 76.5725C254.051 76.7268 254.084 76.8824 254.162 77.0165C254.24 77.1506 254.359 77.2563 254.501 77.3183C254.643 77.3802 254.802 77.3952 254.953 77.361C256.773 76.941 258.173 77.0516 258.873 78.215C259.757 80.7476 258.252 83.2466 255.527 84.6284ZM250.987 113.347C248.657 113.697 245.398 113.114 246.795 110.67C246.867 110.54 246.889 110.39 246.859 110.245C246.828 110.1 246.746 109.971 246.629 109.882C246.511 109.793 246.365 109.748 246.218 109.758C246.07 109.767 245.931 109.829 245.825 109.932C242.791 112.787 245.08 118.192 251.025 118.192C251.064 125.178 251.064 132.203 251.102 139.192C248.736 139.58 245.362 139.154 246.795 136.553C246.868 136.424 246.892 136.272 246.862 136.126C246.832 135.981 246.75 135.851 246.632 135.761C246.513 135.671 246.366 135.627 246.218 135.638C246.07 135.648 245.93 135.711 245.825 135.817C242.815 138.649 245.017 144.077 251.102 144.077C251.102 149.976 251.141 167.751 251.141 167.751C248.736 168.178 245.981 167.284 246.756 165.112C246.989 164.451 246.29 163.87 245.786 164.374C242.808 167.174 244.898 172.634 251.141 172.634C251.141 176.166 251.491 192 251.259 192.815C250.482 193.553 215.592 219.943 207.793 225.648C192.036 237.212 156.448 261.506 154.818 262.594C154.818 262.088 160.988 59.0028 161.066 57.6434C189.889 39.5516 219.803 23.2599 250.637 8.86181C250.599 10.0798 250.655 31.5796 250.676 34.9018C248.425 35.2126 246.368 34.8626 246.524 32.6506C246.585 32.4882 246.663 32.3325 246.756 32.1858C246.827 32.0564 246.85 31.9056 246.819 31.7609C246.789 31.6163 246.707 31.4875 246.59 31.398C246.472 31.3085 246.326 31.2643 246.178 31.2735C246.031 31.2827 245.892 31.3446 245.786 31.448C242.833 34.227 244.893 39.498 250.714 39.708C250.714 45.9954 250.753 52.322 250.753 58.608C245.825 59.2296 246.64 56.0474 246.756 55.892C246.827 55.7626 246.85 55.6118 246.819 55.4671C246.789 55.3225 246.707 55.1937 246.59 55.1042C246.472 55.0147 246.326 54.9705 246.178 54.9797C246.031 54.9889 245.892 55.0508 245.786 55.1542C242.87 57.8982 244.806 63.207 250.792 63.4212C250.832 70.9112 250.832 78.4012 250.869 85.8912C248.58 86.2398 245.67 84.8818 246.756 83.213C247.144 82.6306 246.29 81.9712 245.786 82.4752C242.688 85.3914 245.202 90.7352 250.869 90.7352C250.93 95.4028 250.987 103.342 250.987 113.347Z" fill="#2F3941"/>
</svg>
