<svg width="40" height="40" viewBox="0 0 40 40" fill="none" xmlns="http://www.w3.org/2000/svg">
<rect width="40" height="40" rx="12" fill="#252C32"/>
<path fill-rule="evenodd" clip-rule="evenodd" d="M27.3208 16.6644C27.3208 13.9212 23.9673 12.589 22.0849 14.5844L19.1753 11.8395C23.5419 7.21094 31.3208 10.3011 31.3208 16.6644V22.9819C31.3208 27.451 25.9175 29.6891 22.7574 26.529L13.6372 17.4089C13.0331 16.8047 12 17.2326 12 18.0871V23.6834C12 26.4363 15.331 27.812 17.2735 25.8613L20.1079 28.6838C15.648 33.1625 8 30.004 8 23.6834V18.0871C8 13.669 13.3416 11.4564 16.4657 14.5805L25.5858 23.7006C26.226 24.3408 27.3208 23.8874 27.3208 22.9819V16.6644Z" fill="white"/>
</svg>
