<svg width="24" height="25" viewBox="0 0 24 25" fill="none" xmlns="http://www.w3.org/2000/svg">
<g id="MenuSquare">
<g id="Group">
<g id="Vector">
<path d="M9.5 9.5C9.5 9.22386 9.27614 9 9 9C8.72386 9 8.5 9.22386 8.5 9.5C8.5 9.77614 8.72386 10 9 10C9.27614 10 9.5 9.77614 9.5 9.5ZM15.5 9.5C15.5 9.22386 15.2761 9 15 9C14.7239 9 14.5 9.22386 14.5 9.5C14.5 9.77614 14.7239 10 15 10C15.2761 10 15.5 9.77614 15.5 9.5ZM9.5 15.5C9.5 15.2239 9.27614 15 9 15C8.72386 15 8.5 15.2239 8.5 15.5C8.5 15.7761 8.72386 16 9 16C9.27614 16 9.5 15.7761 9.5 15.5ZM15.5 15.5C15.5 15.2239 15.2761 15 15 15C14.7239 15 14.5 15.2239 14.5 15.5C14.5 15.7761 14.7239 16 15 16C15.2761 16 15.5 15.7761 15.5 15.5Z" fill="#68737D"/>
<path fill-rule="evenodd" clip-rule="evenodd" d="M7.75 9.5C7.75 8.80964 8.30964 8.25 9 8.25C9.69036 8.25 10.25 8.80964 10.25 9.5C10.25 10.1904 9.69036 10.75 9 10.75C8.30964 10.75 7.75 10.1904 7.75 9.5ZM9 9.75C9.13807 9.75 9.25 9.63807 9.25 9.5C9.25 9.36193 9.13807 9.25 9 9.25C8.86193 9.25 8.75 9.36193 8.75 9.5C8.75 9.63807 8.86193 9.75 9 9.75ZM13.75 9.5C13.75 8.80964 14.3096 8.25 15 8.25C15.6904 8.25 16.25 8.80964 16.25 9.5C16.25 10.1904 15.6904 10.75 15 10.75C14.3096 10.75 13.75 10.1904 13.75 9.5ZM15 9.75C15.1381 9.75 15.25 9.63807 15.25 9.5C15.25 9.36193 15.1381 9.25 15 9.25C14.8619 9.25 14.75 9.36193 14.75 9.5C14.75 9.63807 14.8619 9.75 15 9.75ZM7.75 15.5C7.75 14.8096 8.30964 14.25 9 14.25C9.69036 14.25 10.25 14.8096 10.25 15.5C10.25 16.1904 9.69036 16.75 9 16.75C8.30964 16.75 7.75 16.1904 7.75 15.5ZM9 15.75C9.13807 15.75 9.25 15.6381 9.25 15.5C9.25 15.3619 9.13807 15.25 9 15.25C8.86193 15.25 8.75 15.3619 8.75 15.5C8.75 15.6381 8.86193 15.75 9 15.75ZM13.75 15.5C13.75 14.8096 14.3096 14.25 15 14.25C15.6904 14.25 16.25 14.8096 16.25 15.5C16.25 16.1904 15.6904 16.75 15 16.75C14.3096 16.75 13.75 16.1904 13.75 15.5ZM15 15.75C15.1381 15.75 15.25 15.6381 15.25 15.5C15.25 15.3619 15.1381 15.25 15 15.25C14.8619 15.25 14.75 15.3619 14.75 15.5C14.75 15.6381 14.8619 15.75 15 15.75Z" fill="#68737D"/>
</g>
</g>
</g>
</svg>
